<svg xmlns="http://www.w3.org/2000/svg" viewBox="0 0 733.2 282.18"><defs><style>.cls-1,.cls-11,.cls-12,.cls-13,.cls-41{fill:#ffd152;}.cls-14,.cls-15,.cls-16,.cls-2,.cls-44{fill:#9fc914;}.cls-17,.cls-18,.cls-19,.cls-3,.cls-45{fill:#7b37db;}.cls-32,.cls-33,.cls-34,.cls-4,.cls-46{fill:#d83a51;}.cls-35,.cls-36,.cls-37,.cls-5,.cls-55{fill:#2a62dd;}.cls-38,.cls-39,.cls-40,.cls-56,.cls-6{fill:#4aadff;}.cls-26,.cls-27,.cls-28,.cls-7{fill:#bdd9f4;}.cls-20,.cls-21,.cls-22,.cls-49,.cls-8{fill:#5d9316;}.cls-23,.cls-24,.cls-25,.cls-50,.cls-9{fill:#06a599;}.cls-10,.cls-29,.cls-30,.cls-31,.cls-54{fill:#b455ff;}.cls-11,.cls-14,.cls-17,.cls-20,.cls-23,.cls-26,.cls-29,.cls-32,.cls-35,.cls-38{font-size:19.07px;}.cls-11,.cls-12,.cls-13,.cls-14,.cls-15,.cls-16,.cls-17,.cls-18,.cls-19,.cls-20,.cls-21,.cls-22,.cls-23,.cls-24,.cls-25,.cls-26,.cls-27,.cls-28,.cls-29,.cls-30,.cls-31,.cls-32,.cls-33,.cls-34,.cls-35,.cls-36,.cls-37,.cls-38,.cls-39,.cls-40{font-family:Stencil;}.cls-12,.cls-15,.cls-18,.cls-21,.cls-24,.cls-27,.cls-30,.cls-33,.cls-36,.cls-39{font-size:3.87px;}.cls-13,.cls-16,.cls-19,.cls-22,.cls-25,.cls-28,.cls-31,.cls-34,.cls-37,.cls-40{font-size:4.83px;}.cls-41,.cls-44,.cls-45,.cls-46,.cls-49,.cls-50,.cls-54,.cls-55,.cls-56{font-size:8.91px;font-family:Gotham-Black, Gotham Black;font-weight:800;}.cls-42{letter-spacing:-0.01em;}.cls-43{letter-spacing:-0.03em;}.cls-47{letter-spacing:-0.04em;}.cls-48{letter-spacing:-0.02em;}.cls-51{letter-spacing:-0.01em;}.cls-52{letter-spacing:0em;}.cls-53{letter-spacing:0em;}.cls-57{letter-spacing:-0.02em;}</style></defs><title>Asset 2</title><g id="Layer_2" data-name="Layer 2"><g id="OBJECTS"><path class="cls-1" d="M37.37,37.72H0V0H37.37ZM1.12,36.59H36.25V1.12H1.12Z"/><path class="cls-2" d="M37.37,78.46H0V40.74H37.37ZM1.12,77.34H36.25V41.86H1.12Z"/><path class="cls-2" d="M37.37,119.2H0V81.49H37.37ZM1.12,118.08H36.25V82.61H1.12Z"/><path class="cls-2" d="M37.37,160H0V122.23H37.37ZM1.12,158.82H36.25V123.35H1.12Z"/><path class="cls-2" d="M37.37,200.69H0V163H37.37ZM1.12,199.57H36.25V164.09H1.12Z"/><path class="cls-2" d="M37.37,241.43H0V203.72H37.37ZM1.12,240.31H36.25V204.84H1.12Z"/><path class="cls-2" d="M37.37,282.18H0V244.46H37.37ZM1.12,281.05H36.25V245.58H1.12Z"/><path class="cls-3" d="M78.3,78.46H40.93V40.74H78.3ZM42.05,77.34H77.18V41.86H42.05Z"/><path class="cls-3" d="M78.3,119.2H40.93V81.49H78.3Zm-36.25-1.12H77.18V82.61H42.05Z"/><path class="cls-3" d="M78.3,160H40.93V122.23H78.3Zm-36.25-1.13H77.18V123.35H42.05Z"/><path class="cls-3" d="M78.3,200.69H40.93V163H78.3Zm-36.25-1.12H77.18V164.09H42.05Z"/><path class="cls-3" d="M78.3,241.43H40.93V203.72H78.3Zm-36.25-1.12H77.18V204.84H42.05Z"/><path class="cls-3" d="M78.3,282.18H40.93V244.46H78.3Zm-36.25-1.13H77.18V245.58H42.05Z"/><path class="cls-4" d="M119.24,160H81.86V122.23h37.38ZM83,158.82h35.13V123.35H83Z"/><path class="cls-4" d="M119.24,200.69H81.86V163h37.38ZM83,199.57h35.13V164.09H83Z"/><path class="cls-5" d="M119.24,241.43H81.86V203.72h37.38ZM83,240.31h35.13V204.84H83Z"/><path class="cls-6" d="M119.24,282.18H81.86V244.46h37.38ZM83,281.05h35.13V245.58H83Z"/><path class="cls-4" d="M160.17,160H122.79V122.23h37.38Zm-36.26-1.13H159V123.35H123.91Z"/><path class="cls-4" d="M160.17,200.69H122.79V163h37.38Zm-36.26-1.12H159V164.09H123.91Z"/><path class="cls-4" d="M160.17,241.43H122.79V203.72h37.38Zm-36.26-1.12H159V204.84H123.91Z"/><path class="cls-4" d="M160.17,282.18H122.79V244.46h37.38Zm-36.26-1.13H159V245.58H123.91Z"/><path class="cls-4" d="M201.1,160H163.72V122.23H201.1Zm-36.25-1.13H200V123.35H164.85Z"/><path class="cls-4" d="M201.1,200.69H163.72V163H201.1Zm-36.25-1.12H200V164.09H164.85Z"/><path class="cls-4" d="M201.1,241.43H163.72V203.72H201.1Zm-36.25-1.12H200V204.84H164.85Z"/><path class="cls-4" d="M201.1,282.18H163.72V244.46H201.1Zm-36.25-1.13H200V245.58H164.85Z"/><path class="cls-4" d="M242,160H204.65V122.23H242Zm-36.25-1.13h35.13V123.35H205.78Z"/><path class="cls-4" d="M242,200.69H204.65V163H242Zm-36.25-1.12h35.13V164.09H205.78Z"/><path class="cls-4" d="M242,241.43H204.65V203.72H242Zm-36.25-1.12h35.13V204.84H205.78Z"/><path class="cls-4" d="M242,282.18H204.65V244.46H242Zm-36.25-1.13h35.13V245.58H205.78Z"/><path class="cls-4" d="M283,160H245.58V122.23H283Zm-36.25-1.13h35.13V123.35H246.71Z"/><path class="cls-4" d="M283,200.69H245.58V163H283Zm-36.25-1.12h35.13V164.09H246.71Z"/><path class="cls-4" d="M283,241.43H245.58V203.72H283Zm-36.25-1.12h35.13V204.84H246.71Z"/><path class="cls-4" d="M283,282.18H245.58V244.46H283Zm-36.25-1.13h35.13V245.58H246.71Z"/><path class="cls-4" d="M323.89,160H286.52V122.23h37.37Zm-36.25-1.13h35.13V123.35H287.64Z"/><path class="cls-4" d="M323.89,200.69H286.52V163h37.37Zm-36.25-1.12h35.13V164.09H287.64Z"/><path class="cls-4" d="M323.89,241.43H286.52V203.72h37.37Zm-36.25-1.12h35.13V204.84H287.64Z"/><path class="cls-4" d="M323.89,282.18H286.52V244.46h37.37Zm-36.25-1.13h35.13V245.58H287.64Z"/><path class="cls-4" d="M364.82,160H327.45V122.23h37.37Zm-36.25-1.13H363.7V123.35H328.57Z"/><path class="cls-4" d="M364.82,200.69H327.45V163h37.37Zm-36.25-1.12H363.7V164.09H328.57Z"/><path class="cls-4" d="M364.82,241.43H327.45V203.72h37.37Zm-36.25-1.12H363.7V204.84H328.57Z"/><path class="cls-7" d="M364.82,282.18H327.45V244.46h37.37Zm-36.25-1.13H363.7V245.58H328.57Z"/><path class="cls-4" d="M405.75,160H368.38V122.23h37.37Zm-36.25-1.13h35.13V123.35H369.5Z"/><path class="cls-4" d="M405.75,200.69H368.38V163h37.37Zm-36.25-1.12h35.13V164.09H369.5Z"/><path class="cls-4" d="M405.75,241.43H368.38V203.72h37.37Zm-36.25-1.12h35.13V204.84H369.5Z"/><path class="cls-7" d="M405.75,282.18H368.38V244.46h37.37Zm-36.25-1.13h35.13V245.58H369.5Z"/><path class="cls-4" d="M446.68,160H409.31V122.23h37.37Zm-36.25-1.13h35.13V123.35H410.43Z"/><path class="cls-4" d="M446.68,200.69H409.31V163h37.37Zm-36.25-1.12h35.13V164.09H410.43Z"/><path class="cls-4" d="M446.68,241.43H409.31V203.72h37.37Zm-36.25-1.12h35.13V204.84H410.43Z"/><path class="cls-7" d="M446.68,282.18H409.31V244.46h37.37Zm-36.25-1.13h35.13V245.58H410.43Z"/><path class="cls-4" d="M487.61,160H450.24V122.23h37.37Zm-36.25-1.13h35.13V123.35H451.36Z"/><path class="cls-4" d="M487.61,200.69H450.24V163h37.37Zm-36.25-1.12h35.13V164.09H451.36Z"/><path class="cls-4" d="M487.61,241.43H450.24V203.72h37.37Zm-36.25-1.12h35.13V204.84H451.36Z"/><path class="cls-7" d="M487.61,282.18H450.24V244.46h37.37Zm-36.25-1.13h35.13V245.58H451.36Z"/><path class="cls-8" d="M528.54,78.46H491.17V40.74h37.37Zm-36.25-1.12h35.13V41.86H492.29Z"/><path class="cls-9" d="M528.54,119.2H491.17V81.49h37.37Zm-36.25-1.12h35.13V82.61H492.29Z"/><path class="cls-9" d="M528.54,160H491.17V122.23h37.37Zm-36.25-1.13h35.13V123.35H492.29Z"/><path class="cls-9" d="M528.54,200.69H491.17V163h37.37Zm-36.25-1.12h35.13V164.09H492.29Z"/><path class="cls-9" d="M528.54,241.43H491.17V203.72h37.37Zm-36.25-1.12h35.13V204.84H492.29Z"/><path class="cls-7" d="M528.54,282.18H491.17V244.46h37.37Zm-36.25-1.13h35.13V245.58H492.29Z"/><path class="cls-1" d="M569.47,78.46H532.1V40.74h37.37Zm-36.25-1.12h35.13V41.86H533.22Z"/><path class="cls-8" d="M569.47,119.2H532.1V81.49h37.37Zm-36.25-1.12h35.13V82.61H533.22Z"/><path class="cls-8" d="M569.47,160H532.1V122.23h37.37Zm-36.25-1.13h35.13V123.35H533.22Z"/><path class="cls-9" d="M569.47,200.69H532.1V163h37.37Zm-36.25-1.12h35.13V164.09H533.22Z"/><path class="cls-9" d="M569.47,241.43H532.1V203.72h37.37Zm-36.25-1.12h35.13V204.84H533.22Z"/><path class="cls-7" d="M569.47,282.18H532.1V244.46h37.37Zm-36.25-1.13h35.13V245.58H533.22Z"/><path class="cls-1" d="M610.41,78.46H573V40.74h37.38Zm-36.26-1.12h35.13V41.86H574.15Z"/><path class="cls-1" d="M610.41,119.2H573V81.49h37.38Zm-36.26-1.12h35.13V82.61H574.15Z"/><path class="cls-8" d="M610.41,160H573V122.23h37.38Zm-36.26-1.13h35.13V123.35H574.15Z"/><path class="cls-8" d="M610.41,200.69H573V163h37.38Zm-36.26-1.12h35.13V164.09H574.15Z"/><path class="cls-9" d="M610.41,241.43H573V203.72h37.38Zm-36.26-1.12h35.13V204.84H574.15Z"/><path class="cls-7" d="M610.41,282.18H573V244.46h37.38Zm-36.26-1.13h35.13V245.58H574.15Z"/><path class="cls-1" d="M651.34,78.46H614V40.74h37.38Zm-36.26-1.12h35.13V41.86H615.08Z"/><path class="cls-1" d="M651.34,119.2H614V81.49h37.38Zm-36.26-1.12h35.13V82.61H615.08Z"/><path class="cls-1" d="M651.34,160H614V122.23h37.38Zm-36.26-1.13h35.13V123.35H615.08Z"/><path class="cls-8" d="M651.34,200.69H614V163h37.38Zm-36.26-1.12h35.13V164.09H615.08Z"/><path class="cls-9" d="M651.34,241.43H614V203.72h37.38Zm-36.26-1.12h35.13V204.84H615.08Z"/><path class="cls-7" d="M651.34,282.18H614V244.46h37.38Zm-36.26-1.13h35.13V245.58H615.08Z"/><path class="cls-1" d="M692.27,78.46H654.89V40.74h37.38ZM656,77.34h35.12V41.86H656Z"/><path class="cls-1" d="M692.27,119.2H654.89V81.49h37.38ZM656,118.08h35.12V82.61H656Z"/><path class="cls-1" d="M692.27,160H654.89V122.23h37.38ZM656,158.82h35.12V123.35H656Z"/><path class="cls-1" d="M692.27,200.69H654.89V163h37.38ZM656,199.57h35.12V164.09H656Z"/><path class="cls-9" d="M692.27,241.43H654.89V203.72h37.38ZM656,240.31h35.12V204.84H656Z"/><path class="cls-7" d="M692.27,282.18H654.89V244.46h37.38ZM656,281.05h35.12V245.58H656Z"/><path class="cls-10" d="M732.77,38.8H696.25V1.94h36.52Zm-35.42-1.1h34.33V3H697.35Z"/><path class="cls-10" d="M733.2,78.46H695.82V40.74H733.2ZM697,77.34h35.13V41.86H697Z"/><path class="cls-10" d="M733.2,119.2H695.82V81.49H733.2ZM697,118.08h35.13V82.61H697Z"/><path class="cls-10" d="M733.2,160H695.82V122.23H733.2ZM697,158.82h35.13V123.35H697Z"/><path class="cls-10" d="M733.2,200.69H695.82V163H733.2ZM697,199.57h35.13V164.09H697Z"/><path class="cls-10" d="M733.2,241.43H695.82V203.72H733.2ZM697,240.31h35.13V204.84H697Z"/><path class="cls-7" d="M733.2,282.18H695.82V244.46H733.2ZM697,281.05h35.13V245.58H697Z"/><path class="cls-1" d="M127.21,29.28H103.54V5.4h23.67Zm-22.54-1.12h21.42V6.52H104.67Z"/><path class="cls-2" d="M127.21,61.36H103.54V37.48h23.67Zm-22.54-1.12h21.42V38.6H104.67Z"/><path class="cls-3" d="M127.21,93.44H103.54V69.56h23.67Zm-22.54-1.12h21.42V70.68H104.67Z"/><path class="cls-4" d="M265.26,29.28H241.59V5.4h23.67Zm-22.55-1.12h21.43V6.52H242.71Z"/><path class="cls-8" d="M265.26,61.36H241.59V37.48h23.67Zm-22.55-1.12h21.43V38.6H242.71Z"/><path class="cls-9" d="M265.26,93.44H241.59V69.56h23.67Zm-22.55-1.12h21.43V70.68H242.71Z"/><path class="cls-10" d="M403.31,29.28H379.64V5.4h23.67Zm-22.55-1.12h21.43V6.52H380.76Z"/><path class="cls-5" d="M403.31,61.36H379.64V37.48h23.67Zm-22.55-1.12h21.43V38.6H380.76Z"/><path class="cls-6" d="M403.31,93.44H379.64V69.56h23.67Zm-22.55-1.12h21.43V70.68H380.76Z"/></g><g id="TEXTS"><text class="cls-11" transform="translate(11.56 26.22) scale(0.99 1)">H</text><text class="cls-12" transform="translate(8.69 33.1) scale(0.99 1)">Hydrogen</text><text class="cls-12" transform="translate(22.38 6.61) scale(0.99 1)">1.0078</text><text class="cls-13" transform="translate(3.85 6.72) scale(0.99 1)">1</text><text class="cls-14" transform="translate(9.91 66.96) scale(0.99 1)">Li</text><text class="cls-15" transform="translate(10.75 73.85) scale(0.99 1)">Lithium</text><text class="cls-15" transform="translate(22.39 47.36) scale(0.99 1)">6.9410</text><text class="cls-16" transform="translate(3.85 47.47) scale(0.99 1)">3</text><text class="cls-14" transform="translate(6.5 107.7) scale(0.99 1)">Na</text><text class="cls-15" transform="translate(11.59 114.59) scale(0.99 1)">Sodium</text><text class="cls-15" transform="translate(21.42 88.1) scale(0.99 1)">22.990 </text><text class="cls-16" transform="translate(3.85 88.21) scale(0.99 1)">11</text><text class="cls-14" transform="translate(11.75 148.44) scale(0.99 1)">K</text><text class="cls-15" transform="translate(8.21 155.33) scale(0.99 1)">Potassium</text><text class="cls-15" transform="translate(21.42 128.85) scale(0.99 1)">39.098 </text><text class="cls-16" transform="translate(3.85 128.95) scale(0.99 1)">19</text><text class="cls-14" transform="translate(5.76 189.19) scale(0.99 1)">Rb</text><text class="cls-15" transform="translate(9.2 196.08) scale(0.99 1)">Rubidium</text><text class="cls-15" transform="translate(21.42 169.59) scale(0.99 1)">85.468 </text><text class="cls-16" transform="translate(3.85 169.7) scale(0.99 1)">37</text><text class="cls-14" transform="translate(7.88 229.93) scale(0.99 1)">Cs</text><text class="cls-15" transform="translate(10.62 236.82) scale(0.99 1)">Caesium</text><text class="cls-15" transform="translate(21.42 210.33) scale(0.99 1)">132.91 </text><text class="cls-16" transform="translate(3.85 210.44) scale(0.99 1)">55</text><text class="cls-14" transform="translate(6.73 270.68) scale(0.99 1)">Fr</text><text class="cls-15" transform="translate(9.1 277.56) scale(0.99 1)">Francium</text><text class="cls-15" transform="translate(28.03 251.07) scale(0.99 1)">223</text><text class="cls-16" transform="translate(3.85 251.18) scale(0.99 1)">87</text><text class="cls-17" transform="translate(47.75 66.96) scale(0.99 1)">Be</text><text class="cls-18" transform="translate(49.11 73.85) scale(0.99 1)">Beryllium</text><text class="cls-18" transform="translate(62.35 47.36) scale(0.99 1)">9.0122 </text><text class="cls-19" transform="translate(44.78 47.47) scale(0.99 1)">14</text><text class="cls-17" transform="translate(46.36 107.7) scale(0.99 1)">Mg</text><text class="cls-18" transform="translate(48.69 114.59) scale(0.99 1)">Magnesium</text><text class="cls-18" transform="translate(62.35 88.1) scale(0.99 1)">24.305 </text><text class="cls-19" transform="translate(44.78 88.21) scale(0.99 1)">12</text><text class="cls-17" transform="translate(48.25 148.44) scale(0.99 1)">Ca</text><text class="cls-18" transform="translate(51.6 155.33) scale(0.99 1)">Calcium</text><text class="cls-18" transform="translate(62.36 128.85) scale(0.99 1)">40.078 </text><text class="cls-19" transform="translate(44.78 128.95) scale(0.99 1)">20</text><text class="cls-17" transform="translate(47.72 189.19) scale(0.99 1)">Sr</text><text class="cls-18" transform="translate(48.86 196.08) scale(0.99 1)">Strontium</text><text class="cls-18" transform="translate(62.35 169.59) scale(0.99 1)">87.620 </text><text class="cls-19" transform="translate(44.78 169.7) scale(0.99 1)">38</text><text class="cls-17" transform="translate(47.45 229.93) scale(0.99 1)">Ba</text><text class="cls-18" transform="translate(52.24 236.82) scale(0.99 1)">Barium</text><text class="cls-18" transform="translate(62.35 210.33) scale(0.99 1)">137.33 </text><text class="cls-19" transform="translate(44.78 210.44) scale(0.99 1)">56</text><text class="cls-17" transform="translate(47.17 270.68) scale(0.99 1)">Ra</text><text class="cls-18" transform="translate(52.28 277.56) scale(0.99 1)">Radium</text><text class="cls-18" transform="translate(68.96 251.07) scale(0.99 1)">226</text><text class="cls-19" transform="translate(44.78 251.18) scale(0.99 1)">88</text><text class="cls-20" transform="translate(503.53 66.96) scale(0.99 1)">B</text><text class="cls-21" transform="translate(503.51 73.85) scale(0.99 1)">Boron</text><text class="cls-21" transform="translate(512.59 47.36) scale(0.99 1)">10.811 </text><text class="cls-22" transform="translate(495.02 47.47) scale(0.99 1)">5</text><text class="cls-23" transform="translate(498.98 107.7) scale(0.99 1)">Al</text><text class="cls-24" transform="translate(499.23 114.59) scale(0.99 1)">Aluminium</text><text class="cls-24" transform="translate(512.59 88.1) scale(0.99 1)">26.982 </text><text class="cls-25" transform="translate(495.02 88.21) scale(0.99 1)">13</text><text class="cls-23" transform="translate(498.15 148.44) scale(0.99 1)">Ga</text><text class="cls-24" transform="translate(501.87 155.33) scale(0.99 1)">Gallium</text><text class="cls-24" transform="translate(512.59 128.85) scale(0.99 1)">69.723 </text><text class="cls-25" transform="translate(495.02 128.95) scale(0.99 1)">31</text><text class="cls-23" transform="translate(499.77 189.19) scale(0.99 1)">In</text><text class="cls-24" transform="translate(503 196.08) scale(0.99 1)">Indium</text><text class="cls-24" transform="translate(512.59 169.59) scale(0.99 1)">114.82 </text><text class="cls-25" transform="translate(495.02 169.7) scale(0.99 1)">49</text><text class="cls-23" transform="translate(496.85 229.93) scale(0.99 1)">Tl </text><text class="cls-24" transform="translate(500.47 236.82) scale(0.99 1)">Thallium</text><text class="cls-24" transform="translate(512.59 210.33) scale(0.99 1)">204.38 </text><text class="cls-25" transform="translate(495.02 210.44) scale(0.99 1)">81</text><text class="cls-26" transform="translate(496.38 270.68) scale(0.99 1)">Nh</text><text class="cls-27" transform="translate(500.29 277.56) scale(0.99 1)">Nihonium</text><text class="cls-27" transform="translate(518.24 251.07) scale(0.99 1)">286 </text><text class="cls-28" transform="translate(495.02 251.18) scale(0.99 1)">113</text><text class="cls-11" transform="translate(545.27 66.96) scale(0.99 1)">C</text><text class="cls-12" transform="translate(543.35 73.85) scale(0.99 1)">Carbon</text><text class="cls-12" transform="translate(553.52 47.36) scale(0.99 1)">12.011 </text><text class="cls-13" transform="translate(535.95 47.47) scale(0.99 1)">6</text><text class="cls-20" transform="translate(541.75 107.7) scale(0.99 1)">Si</text><text class="cls-21" transform="translate(543.54 114.59) scale(0.99 1)">Silicon</text><text class="cls-21" transform="translate(553.52 88.1) scale(0.99 1)">28.086 </text><text class="cls-22" transform="translate(535.95 88.21) scale(0.99 1)">14</text><text class="cls-20" transform="translate(539.39 148.44) scale(0.99 1)">Ge</text><text class="cls-21" transform="translate(539.59 155.33) scale(0.99 1)">Germanium</text><text class="cls-21" transform="translate(554.48 128.85) scale(0.99 1)">72.640</text><text class="cls-22" transform="translate(535.95 128.95) scale(0.99 1)">32</text><text class="cls-23" transform="translate(539.16 189.19) scale(0.99 1)">Sn</text><text class="cls-24" transform="translate(547.6 196.08) scale(0.99 1)">Tin</text><text class="cls-24" transform="translate(553.52 169.59) scale(0.99 1)">118.71 </text><text class="cls-25" transform="translate(535.95 169.7) scale(0.99 1)">50</text><text class="cls-23" transform="translate(538.45 229.93) scale(0.99 1)">Pb</text><text class="cls-24" transform="translate(546.21 236.82) scale(0.99 1)">Lead</text><text class="cls-24" transform="translate(553.52 210.33) scale(0.99 1)">207.20 </text><text class="cls-25" transform="translate(535.95 210.44) scale(0.99 1)">82</text><text class="cls-26" transform="translate(540.41 270.68) scale(0.99 1)">Fl</text><text class="cls-27" transform="translate(540.27 277.56) scale(0.99 1)">Flerovium</text><text class="cls-27" transform="translate(559.16 251.07) scale(0.99 1)">289 </text><text class="cls-28" transform="translate(535.95 251.18) scale(0.99 1)">114</text><text class="cls-11" transform="translate(585.38 66.96) scale(0.99 1)">N</text><text class="cls-12" transform="translate(582.37 73.85) scale(0.99 1)">Nitrogen</text><text class="cls-12" transform="translate(594.46 47.36) scale(0.99 1)">14.007 </text><text class="cls-13" transform="translate(576.88 47.47) scale(0.99 1)">7</text><text class="cls-11" transform="translate(585.71 107.7) scale(0.99 1)">P</text><text class="cls-12" transform="translate(579.16 114.59) scale(0.99 1)">Phosphorus</text><text class="cls-12" transform="translate(594.46 88.1) scale(0.99 1)">30.974 </text><text class="cls-13" transform="translate(576.88 88.21) scale(0.99 1)">15</text><text class="cls-20" transform="translate(580.58 148.44) scale(0.99 1)">As</text><text class="cls-21" transform="translate(583.82 155.33) scale(0.99 1)">Arsenic</text><text class="cls-21" transform="translate(594.45 128.85) scale(0.99 1)">74.922 </text><text class="cls-22" transform="translate(576.88 128.95) scale(0.99 1)">33</text><text class="cls-20" transform="translate(580.11 189.19) scale(0.99 1)">Sb</text><text class="cls-21" transform="translate(582.19 196.08) scale(0.99 1)">Antimony</text><text class="cls-21" transform="translate(594.45 169.59) scale(0.99 1)">121.76 </text><text class="cls-22" transform="translate(576.88 169.7) scale(0.99 1)">51</text><text class="cls-23" transform="translate(581.65 229.93) scale(0.99 1)">Bi</text><text class="cls-24" transform="translate(583.21 236.82) scale(0.99 1)">Bismuth</text><text class="cls-24" transform="translate(594.45 210.33) scale(0.99 1)">208.98 </text><text class="cls-25" transform="translate(576.88 210.44) scale(0.99 1)">83</text><text class="cls-26" transform="translate(578.8 270.68) scale(0.99 1)">Mc</text><text class="cls-27" transform="translate(580.87 277.56) scale(0.99 1)">Moscovium</text><text class="cls-27" transform="translate(600.1 251.07) scale(0.99 1)">289 </text><text class="cls-28" transform="translate(576.88 251.18) scale(0.99 1)">115</text><text class="cls-11" transform="translate(626.66 66.96) scale(0.99 1)">O</text><text class="cls-12" transform="translate(625.51 73.85) scale(0.99 1)">Oxygen</text><text class="cls-12" transform="translate(635.37 47.36) scale(0.99 1)">15.999 </text><text class="cls-13" transform="translate(617.81 47.47) scale(0.99 1)">8</text><text class="cls-11" transform="translate(627.36 107.7) scale(0.99 1)">S</text><text class="cls-12" transform="translate(625.52 114.59) scale(0.99 1)">Sulfur</text><text class="cls-12" transform="translate(635.38 88.1) scale(0.99 1)">32.065 </text><text class="cls-13" transform="translate(617.81 88.21) scale(0.99 1)">16</text><text class="cls-11" transform="translate(621.81 148.44) scale(0.99 1)">Se</text><text class="cls-12" transform="translate(623.45 155.33) scale(0.99 1)">Selenium</text><text class="cls-12" transform="translate(635.38 128.85) scale(0.99 1)">78.960 </text><text class="cls-13" transform="translate(617.81 128.95) scale(0.99 1)">34</text><text class="cls-20" transform="translate(621.49 189.19) scale(0.99 1)">Te</text><text class="cls-21" transform="translate(622.14 196.08) scale(0.99 1)">Tellurium</text><text class="cls-21" transform="translate(635.38 169.59) scale(0.99 1)">127.60 </text><text class="cls-22" transform="translate(617.81 169.7) scale(0.99 1)">52</text><text class="cls-23" transform="translate(620.65 229.93) scale(0.99 1)">Po</text><text class="cls-24" transform="translate(623.12 236.82) scale(0.99 1)">Polonium</text><text class="cls-24" transform="translate(641.03 210.33) scale(0.99 1)">209 </text><text class="cls-25" transform="translate(617.81 210.44) scale(0.99 1)">84</text><text class="cls-26" transform="translate(621.91 270.68) scale(0.99 1)">Lv</text><text class="cls-27" transform="translate(619.62 277.56) scale(0.99 1)">Livermorium</text><text class="cls-27" transform="translate(641.03 251.07) scale(0.99 1)">293 </text><text class="cls-28" transform="translate(617.81 251.18) scale(0.99 1)">116</text><text class="cls-11" transform="translate(668.23 66.96) scale(0.99 1)">F</text><text class="cls-12" transform="translate(664.44 73.85) scale(0.99 1)">Fluorine</text><text class="cls-12" transform="translate(676.31 47.36) scale(0.99 1)">18.998 </text><text class="cls-13" transform="translate(658.74 47.47) scale(0.99 1)">9</text><text class="cls-11" transform="translate(663.03 107.7) scale(0.99 1)">Cl</text><text class="cls-12" transform="translate(664.25 114.59) scale(0.99 1)">Chlorine</text><text class="cls-12" transform="translate(676.31 88.1) scale(0.99 1)">35.453 </text><text class="cls-13" transform="translate(658.74 88.21) scale(0.99 1)">17</text><text class="cls-11" transform="translate(660.65 148.44) scale(0.99 1)">Br</text><text class="cls-12" transform="translate(665.06 155.33) scale(0.99 1)">Bromine</text><text class="cls-12" transform="translate(676.32 128.85) scale(0.99 1)">79.904 </text><text class="cls-13" transform="translate(658.74 128.95) scale(0.99 1)">35</text><text class="cls-11" transform="translate(669.83 189.19) scale(0.99 1)">I</text><text class="cls-12" transform="translate(667.18 196.08) scale(0.99 1)">Iodine</text><text class="cls-12" transform="translate(676.31 169.59) scale(0.99 1)">126.90 </text><text class="cls-13" transform="translate(658.74 169.7) scale(0.99 1)">53</text><text class="cls-23" transform="translate(662.12 229.93) scale(0.99 1)">At</text><text class="cls-24" transform="translate(664.68 236.82) scale(0.99 1)">Astatine</text><text class="cls-24" transform="translate(681.96 210.33) scale(0.99 1)">210 </text><text class="cls-25" transform="translate(658.74 210.44) scale(0.99 1)">85</text><text class="cls-26" transform="translate(662.68 270.68) scale(0.99 1)">Ts</text><text class="cls-27" transform="translate(662.29 277.56) scale(0.99 1)">Tennessine</text><text class="cls-28" transform="translate(658.74 251.18) scale(0.99 1)">117</text><text class="cls-29" transform="translate(701.83 26.22) scale(0.99 1)">He</text><text class="cls-30" transform="translate(707.35 33.1) scale(0.99 1)">Helium</text><text class="cls-30" transform="translate(717.25 6.61) scale(0.99 1)">4.0026 </text><text class="cls-31" transform="translate(699.68 6.72) scale(0.99 1)">2</text><text class="cls-29" transform="translate(702.62 66.96) scale(0.99 1)">Ne</text><text class="cls-30" transform="translate(709.59 73.85) scale(0.99 1)">Neon</text><text class="cls-30" transform="translate(717.24 47.36) scale(0.99 1)">20.180 </text><text class="cls-31" transform="translate(699.68 47.47) scale(0.99 1)">10</text><text class="cls-29" transform="translate(702.06 107.7) scale(0.99 1)">Ar</text><text class="cls-30" transform="translate(708.28 114.59) scale(0.99 1)">Argon</text><text class="cls-30" transform="translate(717.24 88.1) scale(0.99 1)">39.948 </text><text class="cls-31" transform="translate(699.68 88.21) scale(0.99 1)">18</text><text class="cls-29" transform="translate(700.97 148.44) scale(0.99 1)">Kr</text><text class="cls-30" transform="translate(705.75 155.33) scale(0.99 1)">Krypton</text><text class="cls-30" transform="translate(717.24 128.85) scale(0.99 1)">83.798 </text><text class="cls-31" transform="translate(699.68 128.95) scale(0.99 1)">36</text><text class="cls-29" transform="translate(703.22 189.19) scale(0.99 1)">Xe</text><text class="cls-30" transform="translate(708.42 196.08) scale(0.99 1)">Xenon</text><text class="cls-30" transform="translate(717.24 169.59) scale(0.99 1)">131.29 </text><text class="cls-31" transform="translate(699.68 169.7) scale(0.99 1)">54</text><text class="cls-29" transform="translate(701.56 229.93) scale(0.99 1)">Rn</text><text class="cls-30" transform="translate(708.23 236.82) scale(0.99 1)">Radon</text><text class="cls-30" transform="translate(723.85 210.33) scale(0.99 1)">222</text><text class="cls-31" transform="translate(699.68 210.44) scale(0.99 1)">86</text><text class="cls-26" transform="translate(702.66 270.68) scale(0.99 1)">Og</text><text class="cls-27" transform="translate(703.85 277.56) scale(0.99 1)">Oganesson</text><text class="cls-27" transform="translate(723.85 251.07) scale(0.99 1)">294</text><text class="cls-28" transform="translate(699.68 251.18) scale(0.99 1)">118</text><text class="cls-32" transform="translate(132.06 148.44) scale(0.99 1)">Ti</text><text class="cls-33" transform="translate(132.34 155.33) scale(0.99 1)">Titanium</text><text class="cls-33" transform="translate(144.15 128.85) scale(0.99 1)">47.867 </text><text class="cls-34" transform="translate(126.58 128.95) scale(0.99 1)">22</text><text class="cls-32" transform="translate(129.86 189.19) scale(0.99 1)">Zr</text><text class="cls-33" transform="translate(131.12 196.08) scale(0.99 1)">Zirconium</text><text class="cls-33" transform="translate(144.15 169.59) scale(0.99 1)">91.224 </text><text class="cls-34" transform="translate(126.58 169.7) scale(0.99 1)">40</text><text class="cls-32" transform="translate(128.93 229.93) scale(0.99 1)">Hf</text><text class="cls-33" transform="translate(132.84 236.82) scale(0.99 1)">Hafnium</text><text class="cls-33" transform="translate(144.15 210.33) scale(0.99 1)">178.49 </text><text class="cls-34" transform="translate(126.58 210.44) scale(0.99 1)">72</text><text class="cls-32" transform="translate(129.46 270.68) scale(0.99 1)">Rf</text><text class="cls-33" transform="translate(125.27 277.56) scale(0.99 1)">Rutherfordium</text><text class="cls-33" transform="translate(150.75 251.07) scale(0.99 1)">261</text><text class="cls-34" transform="translate(126.58 251.18) scale(0.99 1)">104</text><text class="cls-32" transform="translate(89.18 148.44) scale(0.99 1)">Sc</text><text class="cls-33" transform="translate(90.51 155.33) scale(0.99 1)">Scandium</text><text class="cls-33" transform="translate(102.73 128.85) scale(0.99 1)">44.956 </text><text class="cls-34" transform="translate(85.15 128.95) scale(0.99 1)">21</text><text class="cls-32" transform="translate(94.35 189.19) scale(0.99 1)">Y</text><text class="cls-33" transform="translate(91.66 196.08) scale(0.99 1)">Yttrium</text><text class="cls-33" transform="translate(102.72 169.59) scale(0.99 1)">88.906 </text><text class="cls-34" transform="translate(85.15 169.7) scale(0.99 1)">39</text><text class="cls-35" transform="translate(89.11 229.93) scale(0.99 1)">La</text><text class="cls-36" transform="translate(89.99 236.82) scale(0.99 1)">Hydrogen</text><text class="cls-36" transform="translate(102.72 210.33) scale(0.99 1)">138.91 </text><text class="cls-37" transform="translate(85.15 210.44) scale(0.99 1)">57</text><text class="cls-38" transform="translate(88.62 270.68) scale(0.99 1)">Ac</text><text class="cls-39" transform="translate(90.93 277.56) scale(0.99 1)">Actinium</text><text class="cls-39" transform="translate(109.33 251.07) scale(0.99 1)">227</text><text class="cls-40" transform="translate(85.15 251.18) scale(0.99 1)">89</text><text class="cls-32" transform="translate(176.64 148.44) scale(0.99 1)">V</text><text class="cls-33" transform="translate(172.71 155.33) scale(0.99 1)">Vanadium</text><text class="cls-33" transform="translate(185.08 128.85) scale(0.99 1)">50.942 </text><text class="cls-34" transform="translate(167.51 128.95) scale(0.99 1)">23</text><text class="cls-32" transform="translate(169.68 189.19) scale(0.99 1)">Nb</text><text class="cls-33" transform="translate(174.23 196.08) scale(0.99 1)">Niobium</text><text class="cls-33" transform="translate(185.08 169.59) scale(0.99 1)">92.906 </text><text class="cls-34" transform="translate(167.51 169.7) scale(0.99 1)">41</text><text class="cls-32" transform="translate(170.89 229.93) scale(0.99 1)">Ta</text><text class="cls-33" transform="translate(172.58 236.82) scale(0.99 1)">Tantalum</text><text class="cls-33" transform="translate(185.07 210.33) scale(0.99 1)">180.95 </text><text class="cls-34" transform="translate(167.51 210.44) scale(0.99 1)">73</text><text class="cls-32" transform="translate(169.89 270.68) scale(0.99 1)">Db</text><text class="cls-33" transform="translate(173.67 277.56) scale(0.99 1)">Dubnium</text><text class="cls-33" transform="translate(191.68 251.07) scale(0.99 1)">262</text><text class="cls-34" transform="translate(167.51 251.18) scale(0.99 1)">105</text><text class="cls-32" transform="translate(211.15 148.44) scale(0.99 1)">Cr</text><text class="cls-33" transform="translate(213.08 155.33) scale(0.99 1)">Chromium</text><text class="cls-33" transform="translate(226 128.85) scale(0.99 1)">51.996 </text><text class="cls-34" transform="translate(208.44 128.95) scale(0.99 1)">24</text><text class="cls-32" transform="translate(209.88 189.19) scale(0.99 1)">Mo</text><text class="cls-33" transform="translate(210.64 196.08) scale(0.99 1)">Molybdenum</text><text class="cls-33" transform="translate(226 169.59) scale(0.99 1)">95.950 </text><text class="cls-34" transform="translate(208.44 169.7) scale(0.99 1)">42</text><text class="cls-32" transform="translate(215.52 229.93) scale(0.99 1)">W</text><text class="cls-33" transform="translate(213.73 236.82) scale(0.99 1)">Tungsten</text><text class="cls-33" transform="translate(226.01 210.33) scale(0.99 1)">183.84 </text><text class="cls-34" transform="translate(208.44 210.44) scale(0.99 1)">74</text><text class="cls-32" transform="translate(212.13 270.68) scale(0.99 1)">Sg</text><text class="cls-33" transform="translate(211.29 277.56) scale(0.99 1)">Seaborgium</text><text class="cls-34" transform="translate(208.44 251.18) scale(0.99 1)">106</text><text class="cls-32" transform="translate(250.46 148.44) scale(0.99 1)">Mn</text><text class="cls-33" transform="translate(253.23 155.33) scale(0.99 1)">Manganese</text><text class="cls-33" transform="translate(266.94 128.85) scale(0.99 1)">54.938 </text><text class="cls-34" transform="translate(249.37 128.95) scale(0.99 1)">25</text><text class="cls-32" transform="translate(253.07 189.19) scale(0.99 1)">Tc</text><text class="cls-33" transform="translate(252.25 196.08) scale(0.99 1)">Technetium</text><text class="cls-33" transform="translate(275.75 169.59) scale(0.99 1)">98</text><text class="cls-34" transform="translate(249.37 169.7) scale(0.99 1)">43</text><text class="cls-32" transform="translate(252.06 229.93) scale(0.99 1)">Re</text><text class="cls-33" transform="translate(255.44 236.82) scale(0.99 1)">Rhenium</text><text class="cls-33" transform="translate(266.94 210.33) scale(0.99 1)">186.21 </text><text class="cls-34" transform="translate(249.37 210.44) scale(0.99 1)">75</text><text class="cls-32" transform="translate(250.75 270.68) scale(0.99 1)">Bh</text><text class="cls-33" transform="translate(255.35 277.56) scale(0.99 1)">Bohrium</text><text class="cls-33" transform="translate(273.55 251.07) scale(0.99 1)">264</text><text class="cls-34" transform="translate(249.37 251.18) scale(0.99 1)">107</text><text class="cls-32" transform="translate(294.24 148.44) scale(0.99 1)">Fe</text><text class="cls-33" transform="translate(300.53 155.33) scale(0.99 1)">Iron</text><text class="cls-33" transform="translate(307.86 128.85) scale(0.99 1)">55.845 </text><text class="cls-34" transform="translate(290.3 128.95) scale(0.99 1)">26</text><text class="cls-32" transform="translate(292.14 189.19) scale(0.99 1)">Ru</text><text class="cls-33" transform="translate(293.93 196.08) scale(0.99 1)">Ruthenium</text><text class="cls-33" transform="translate(307.87 169.59) scale(0.99 1)">101.07 </text><text class="cls-34" transform="translate(290.3 169.7) scale(0.99 1)">44</text><text class="cls-32" transform="translate(293.85 229.93) scale(0.99 1)">Os</text><text class="cls-33" transform="translate(297.78 236.82) scale(0.99 1)">Osmium</text><text class="cls-33" transform="translate(307.87 210.33) scale(0.99 1)">190.23 </text><text class="cls-34" transform="translate(290.3 210.44) scale(0.99 1)">76</text><text class="cls-32" transform="translate(292.72 270.68) scale(0.99 1)">Hs</text><text class="cls-33" transform="translate(296.79 277.56) scale(0.99 1)">Hassium</text><text class="cls-33" transform="translate(314.47 251.07) scale(0.99 1)">269</text><text class="cls-34" transform="translate(290.3 251.18) scale(0.99 1)">108</text><text class="cls-32" transform="translate(334.55 148.44) scale(0.99 1)">Co</text><text class="cls-33" transform="translate(339.09 155.33) scale(0.99 1)">Cobalt</text><text class="cls-33" transform="translate(348.79 128.85) scale(0.99 1)">58.933 </text><text class="cls-34" transform="translate(331.23 128.95) scale(0.99 1)">27</text><text class="cls-32" transform="translate(332.33 189.19) scale(0.99 1)">Rh</text><text class="cls-33" transform="translate(337.25 196.08) scale(0.99 1)">Rhodium</text><text class="cls-33" transform="translate(348.8 169.59) scale(0.99 1)">102.91 </text><text class="cls-34" transform="translate(331.23 169.7) scale(0.99 1)">45</text><text class="cls-32" transform="translate(335.72 229.93) scale(0.99 1)">Ir</text><text class="cls-33" transform="translate(338.4 236.82) scale(0.99 1)">Iridium</text><text class="cls-33" transform="translate(348.8 210.33) scale(0.99 1)">192.22 </text><text class="cls-34" transform="translate(331.23 210.44) scale(0.99 1)">77</text><text class="cls-26" transform="translate(333.06 270.68) scale(0.99 1)">Mt</text><text class="cls-27" transform="translate(334.22 277.56) scale(0.99 1)">Meitnerium</text><text class="cls-27" transform="translate(355.41 251.07) scale(0.99 1)">278</text><text class="cls-28" transform="translate(331.23 251.18) scale(0.99 1)">109</text><text class="cls-32" transform="translate(376.91 148.44) scale(0.99 1)">Ni</text><text class="cls-33" transform="translate(380.27 155.33) scale(0.99 1)">Nickel</text><text class="cls-33" transform="translate(389.72 128.85) scale(0.99 1)">58.693 </text><text class="cls-34" transform="translate(372.16 128.95) scale(0.99 1)">28</text><text class="cls-32" transform="translate(374.86 189.19) scale(0.99 1)">Pd</text><text class="cls-33" transform="translate(376.55 196.08) scale(0.99 1)">Palladium</text><text class="cls-33" transform="translate(389.73 169.59) scale(0.99 1)">106.42 </text><text class="cls-34" transform="translate(372.16 169.7) scale(0.99 1)">46</text><text class="cls-32" transform="translate(375.38 229.93) scale(0.99 1)">Pt</text><text class="cls-33" transform="translate(377.57 236.82) scale(0.99 1)">Platinum</text><text class="cls-33" transform="translate(389.73 210.33) scale(0.99 1)">195.08 </text><text class="cls-34" transform="translate(372.16 210.44) scale(0.99 1)">78</text><text class="cls-26" transform="translate(375.58 270.68) scale(0.99 1)">Ds</text><text class="cls-27" transform="translate(372.37 277.56) scale(0.99 1)">Darmstadtium</text><text class="cls-27" transform="translate(396.33 251.07) scale(0.99 1)">281</text><text class="cls-28" transform="translate(372.16 251.18) scale(0.99 1)">110</text><text class="cls-32" transform="translate(416.01 148.44) scale(0.99 1)">Cu</text><text class="cls-33" transform="translate(420.68 155.33) scale(0.99 1)">Copper</text><text class="cls-33" transform="translate(430.66 128.85) scale(0.99 1)">63.546 </text><text class="cls-34" transform="translate(413.09 128.95) scale(0.99 1)">29</text><text class="cls-32" transform="translate(416.22 189.19) scale(0.99 1)">Ag</text><text class="cls-33" transform="translate(421.45 196.08) scale(0.99 1)">Silver</text><text class="cls-33" transform="translate(430.66 169.59) scale(0.99 1)">107.87 </text><text class="cls-34" transform="translate(413.09 169.7) scale(0.99 1)">47</text><text class="cls-32" transform="translate(415.69 229.93) scale(0.99 1)">Au</text><text class="cls-33" transform="translate(423.25 236.82) scale(0.99 1)">Gold</text><text class="cls-33" transform="translate(430.66 210.33) scale(0.99 1)">196.97 </text><text class="cls-34" transform="translate(413.09 210.44) scale(0.99 1)">79</text><text class="cls-26" transform="translate(415.47 270.68) scale(0.99 1)">Rg</text><text class="cls-27" transform="translate(414.65 277.56) scale(0.99 1)">Roentgenium</text><text class="cls-27" transform="translate(437.26 251.07) scale(0.99 1)">282</text><text class="cls-28" transform="translate(413.09 251.18) scale(0.99 1)">111</text><text class="cls-32" transform="translate(457.57 148.44) scale(0.99 1)">Zn</text><text class="cls-33" transform="translate(464.68 155.33) scale(0.99 1)">Zinc</text><text class="cls-33" transform="translate(471.59 128.85) scale(0.99 1)">65.380 </text><text class="cls-34" transform="translate(454.02 128.95) scale(0.99 1)">30</text><text class="cls-32" transform="translate(457.21 189.19) scale(0.99 1)">Cd</text><text class="cls-33" transform="translate(460.24 196.08) scale(0.99 1)">Cadmium</text><text class="cls-33" transform="translate(471.59 169.59) scale(0.99 1)">112.41 </text><text class="cls-34" transform="translate(454.02 169.7) scale(0.99 1)">48</text><text class="cls-32" transform="translate(455.87 229.93) scale(0.99 1)">Hg</text><text class="cls-33" transform="translate(459.98 236.82) scale(0.99 1)">Mercury</text><text class="cls-33" transform="translate(471.59 210.33) scale(0.99 1)">200.59 </text><text class="cls-34" transform="translate(454.02 210.44) scale(0.99 1)">80</text><text class="cls-26" transform="translate(456.99 270.68) scale(0.99 1)">Cn</text><text class="cls-27" transform="translate(456.1 277.56) scale(0.99 1)">Copernicium</text><text class="cls-27" transform="translate(477.23 251.07) scale(0.99 1)">285 </text><text class="cls-28" transform="translate(454.02 251.18) scale(0.99 1)">112</text><text class="cls-41" transform="translate(133.65 20.37) scale(0.99 1)"><tspan class="cls-42">R</tspan><tspan x="6.32" y="0">eacti</tspan><tspan class="cls-43" x="28.64" y="0">v</tspan><tspan x="33.92" y="0">e nonmetals</tspan></text><text class="cls-44" transform="translate(133.65 52.45) scale(0.99 1)">Al<tspan class="cls-42" x="9.76" y="0">k</tspan><tspan x="15.04" y="0">ali metals</tspan></text><text class="cls-45" transform="translate(133.65 84.53) scale(0.99 1)">Al<tspan class="cls-42" x="9.76" y="0">k</tspan><tspan x="15.04" y="0">aline earth </tspan></text><text class="cls-46" transform="translate(271.7 20.37) scale(0.99 1)"><tspan class="cls-47">T</tspan><tspan class="cls-48" x="5.57" y="0">r</tspan><tspan x="9.16" y="0">ansition metals</tspan></text><text class="cls-49" transform="translate(271.7 52.45) scale(0.99 1)">Metalloids</text><text class="cls-50" transform="translate(271.7 84.53) scale(0.99 1)"><tspan class="cls-51">P</tspan><tspan class="cls-52" x="5.95" y="0">o</tspan><tspan class="cls-42" x="11.78" y="0">s</tspan><tspan class="cls-53" x="16.28" y="0">t-t</tspan><tspan class="cls-48" x="27.59" y="0">r</tspan><tspan x="31.19" y="0">ansition metals</tspan></text><text class="cls-54" transform="translate(409.75 20.37) scale(0.99 1)">Noble gases</text><text class="cls-55" transform="translate(409.75 52.45) scale(0.99 1)">Lanthanides</text><text class="cls-56" transform="translate(409.75 84.53) scale(0.99 1)"><tspan class="cls-57">A</tspan><tspan x="6.89" y="0">ctinides</tspan></text></g></g></svg>